<svg xmlns="http://www.w3.org/2000/svg" width="1015.593" height="316.883" viewBox="-307.531 29.141 1015.593 316.883"><path fill="#FFF" d="M-80.9 126.358l-8.317-14.41-8.324 14.41h-37.413l-18.72-32.41 8.322-14.406h-16.626l-8.326-14.415-8.326 14.415h-16.626l8.322 14.406-18.72 32.41h-37.413l-8.324-14.41-8.317 14.41h-16.638l8.322 14.408-8.322 14.408h16.638l18.707 32.408-18.707 32.408h-16.638l8.322 14.408-8.322 14.408h16.638l8.317 14.41 8.324-14.41h37.413l18.72 32.408-8.322 14.406h16.626l8.326 14.415 8.326-14.415h16.626l-8.322-14.406 18.72-32.408h37.413l8.323 14.41 8.318-14.41h16.638l-8.322-14.408 8.322-14.408H-80.9l-18.707-32.408 18.707-32.408h16.638l-8.322-14.408 8.322-14.408z"/><path fill="#C23582" d="M-70.507 108.359l-18.706-32.408-18.718 32.408h-16.633l-8.322-14.409 18.72-32.407h-37.422l-18.716-32.401-18.716 32.401h-37.422l18.72 32.407-8.322 14.409h-16.633l-18.719-32.408-18.706 32.408h-37.429l18.72 32.408-18.719 32.407h37.428l8.317 14.408-8.317 14.408h-37.428l18.719 32.408-18.72 32.408h37.429l18.706 32.406 18.719-32.406h16.633l8.322 14.407-18.72 32.406h37.422l18.716 32.403 18.716-32.403h37.422l-18.72-32.406 8.322-14.407h16.633l18.718 32.406 18.706-32.406h37.429l-18.72-32.408 18.719-32.408h-37.428l-8.317-14.408 8.317-14.408h37.428l-18.719-32.407 18.72-32.408h-37.429zm6.245 46.815H-80.9l-18.707 32.408L-80.9 219.99h16.638l-8.322 14.408 8.322 14.408H-80.9l-8.318 14.409-8.323-14.409h-37.413l-18.72 32.407 8.322 14.406h-16.626l-8.326 14.415-8.326-14.415h-16.626l8.322-14.406-18.72-32.407h-37.413l-8.324 14.409-8.317-14.409h-16.638l8.322-14.408-8.322-14.408h16.638l18.707-32.408-18.707-32.408h-16.638l8.322-14.407-8.322-14.408h16.638l8.317-14.41 8.324 14.41h37.413l18.72-32.41-8.322-14.406h16.626l8.326-14.415 8.326 14.415h16.626l-8.322 14.406 18.72 32.41h37.413l8.324-14.41 8.317 14.41h16.638l-8.322 14.408 8.322 14.407z"/><path d="M68.148 264.04H43.449V111.694h85.969v21.049h-61.27v47.627h57.414v21.147H68.148v62.523zm144.738-117.336c4.935 0 8.993.352 12.193 1.043l-2.398 22.826c-3.477-.84-7.083-1.255-10.837-1.255-9.795 0-17.735 3.19-23.813 9.583-6.078 6.393-9.112 14.692-9.112 24.911v60.228h-24.487V148.789h19.165l3.237 20.317h1.245c3.828-6.871 8.809-12.331 14.96-16.354 6.142-4.027 12.764-6.048 19.847-6.048zm105.66 117.336l-4.897-16.048h-.83c-5.562 7.02-11.151 11.796-16.777 14.332s-12.856 3.801-21.674 3.801c-11.326 0-20.162-3.055-26.525-9.168-6.354-6.115-9.527-14.768-9.527-25.954 0-11.879 4.408-20.835 13.226-26.876 8.826-6.05 22.273-9.353 40.332-9.904l19.903-.627v-6.144c0-7.369-1.725-12.866-5.155-16.52-3.44-3.645-8.771-5.471-16.002-5.471-5.903 0-11.565.867-16.979 2.603a129.02 129.02 0 0 0-15.634 6.15l-7.922-17.505c6.253-3.267 13.097-5.746 20.53-7.453 7.434-1.695 14.452-2.555 21.047-2.555 14.665 0 25.724 3.2 33.193 9.593 7.462 6.393 11.197 16.427 11.197 30.113v77.63l-17.506.003zm-36.469-16.675c8.892 0 16.03-2.479 21.416-7.451 5.377-4.963 8.07-11.927 8.07-20.892v-9.998l-14.794.618c-11.528.424-19.922 2.353-25.169 5.782-5.239 3.438-7.868 8.706-7.868 15.789 0 5.139 1.531 9.122 4.594 11.937 3.053 2.813 7.637 4.215 13.751 4.215zm134.629 18.76c-17.432 0-30.685-5.092-39.751-15.266-9.066-10.184-13.604-24.781-13.604-43.817 0-19.388 4.75-34.281 14.231-44.704s23.187-15.634 41.107-15.634c12.156 0 23.095 2.26 32.824 6.778l-7.396 19.69c-10.357-4.029-18.898-6.041-25.64-6.041-19.94 0-29.901 13.234-29.901 39.695 0 12.922 2.48 22.634 7.443 29.127 4.971 6.492 12.248 9.749 21.83 9.749 10.911 0 21.231-2.712 30.953-8.136v21.36a48.069 48.069 0 0 1-14.02 5.523c-4.961 1.123-10.992 1.676-18.076 1.676zm102.118-19.802c5.977 0 11.953-.931 17.93-2.813v18.445c-2.711 1.182-6.207 2.167-10.477 2.97-4.271.803-8.697 1.199-13.281 1.199-23.206 0-34.81-12.229-34.81-36.682v-62.106h-15.732v-10.838l16.878-8.955 8.338-24.386h15.106v25.631H535.6v18.548h-32.823v61.691c0 5.903 1.483 10.267 4.437 13.078 2.95 2.816 6.823 4.218 11.61 4.218zM631.89 264.04l-4.896-16.048h-.83c-5.563 7.02-11.15 11.796-16.777 14.332-5.635 2.536-12.854 3.801-21.682 3.801-11.318 0-20.162-3.055-26.52-9.168-6.354-6.115-9.535-14.768-9.535-25.954 0-11.879 4.418-20.835 13.234-26.876 8.826-6.05 22.266-9.353 40.332-9.904l19.902-.627v-6.144c0-7.369-1.725-12.866-5.164-16.52-3.439-3.645-8.771-5.471-15.992-5.471-5.9 0-11.564.867-16.99 2.603a129.783 129.783 0 0 0-15.623 6.15l-7.922-17.505c6.252-3.267 13.098-5.746 20.529-7.453 7.436-1.695 14.443-2.555 21.047-2.555 14.656 0 25.727 3.2 33.188 9.593 7.471 6.393 11.205 16.427 11.205 30.113v77.63l-17.506.003zm-36.469-16.675c8.891 0 16.029-2.479 21.406-7.451 5.387-4.963 8.08-11.927 8.08-20.892v-9.998l-14.795.618c-11.537.424-19.92 2.353-25.168 5.782-5.248 3.438-7.867 8.706-7.867 15.789 0 5.139 1.529 9.122 4.582 11.937 3.063 2.813 7.647 4.215 13.762 4.215zm112.641 16.675h-24.484V101.899h24.484V264.04z"/></svg>