<svg width="34" height="39.231" viewBox="151 168 132 152" xmlns="http://www.w3.org/2000/svg"><path stroke="#C23582" stroke-width="10" fill="#FFF" d="M167 215h11.111l5.556-9.623 5.555 9.623h11.111l5.556-9.623-5.556-9.622h11.111l5.556-9.623 5.556 9.623h11.11l-5.555 9.622 5.556 9.623h11.11l5.556-9.623L255.89 215H267l-5.556 9.623 5.556 9.622h-11.111l-5.556 9.623 5.556 9.622H267l-5.556 9.623 5.556 9.622h-11.111l-5.556 9.623-5.555-9.623h-11.111l-5.556 9.623 5.556 9.622h-11.111L217 301.603l-5.556-9.623h-11.11l5.555-9.622-5.556-9.623h-11.11l-5.556 9.623-5.556-9.623H167l5.556-9.622L167 253.49h11.111l5.556-9.622-5.556-9.623H167l5.556-9.622z" fill-rule="evenodd"/></svg>