<svg xmlns="http://www.w3.org/2000/svg" width="961" height="615.393"><path d="M846.362 18.858l-1.434-.974-23.65 34.812c.556.21 1.111.42 1.664.635l23.42-34.473zM646.412 310.089l1.434.973 23.648-34.81c-.556-.21-1.11-.42-1.663-.635l-23.419 34.472zM572.501 263.545l.863 1.502 41.36-23.803c-.433-.417-.86-.837-1.286-1.258l-40.937 23.559zM920.272 65.404l-.863-1.501-41.36 23.803c.433.417.859.837 1.285 1.258l40.938-23.56zM532.394 197.712l.273 1.71 50.813-8.101c-.163-.559-.332-1.115-.485-1.676l-50.601 8.067zM960.379 131.238l-.273-1.71-50.813 8.101c.162.559.332 1.115.485 1.677l50.601-8.068zM533.946 125.342l-.307 1.705 50.287 9.055c.172-.557.358-1.109.541-1.663l-50.521-9.097zM908.303 194.509l50.521 9.097.307-1.705-50.287-9.055c-.172.557-.359 1.11-.541 1.663zM915.846 268.409l.898-1.48-40.102-24.355c-.438.41-.872.821-1.316 1.227l40.52 24.608zM576.925 60.541l-.898 1.48 40.101 24.354c.437-.41.872-.821 1.316-1.226l-40.519-24.608zM652.992 16.008l-1.461.93 22.209 34.921c.555-.202 1.115-.397 1.674-.594l-22.422-35.257zM839.777 312.941l1.461-.93-22.209-34.922c-.555.202-1.115.397-1.674.595l22.422 35.257zM747.251 39.405V.5h-1.732v38.905c.289-.001.576-.008.866-.008s.577.007.866.008zM745.519 289.543v38.904h1.732v-38.904c-.289.001-.576.008-.866.008s-.577-.007-.866-.008zM344.971 410.8a1092.9 1092.9 0 0 0-267.397 0v-13.841a948.793 948.793 0 0 1 267.397 0V410.8z"/><path d="M115.279 412.848v22.703a1570.604 1570.604 0 0 1 191.987 0v-22.703a1167.884 1167.884 0 0 0-191.987 0zM308.909 441.68a1728.803 1728.803 0 0 0-195.272 0c-.001 55.114-6.616 109.774-9.919 163.632 71.4 12.775 143.709 12.775 215.109 0-3.303-53.857-9.917-108.518-9.918-163.632zM855.706 128.025c0-2.662-1.618-4.236-3.716-4.236-2.094 0-3.757 1.528-3.757 4.236 0 2.754 1.663 4.326 3.757 4.326 2.053 0 3.716-1.572 3.716-4.326zm2.621 17.043c0-1.661-1.356-2.142-3.805-2.142h-2.927c-1.176 0-2.091-.087-2.928-.306-1.131.877-1.654 1.836-1.654 2.842 0 1.921 2.094 3.058 5.504 3.058 3.451.001 5.81-1.616 5.81-3.452zm-13.718 43.49h7.518v22.108h10.742v6.293h-18.26v-28.401zm-199.762-55.324c0 1.718 1.054 3.124 3.207 3.124 2.289 0 3.388-1.934 4.49-4.794-1.275-1.102-2.64-1.718-4.089-1.718-2.16 0-3.608 1.279-3.608 3.388zm-15.255-19.494v103.224l50.266.004V113.74h-50.266zm39.232 93.94h-3.698c-6.731-7.133-11.524-12.147-15.487-12.147-2.724 0-4.221 1.541-4.221 3.963 0 2.024 1.364 3.562 2.857 4.969l-3.477 3.521c-2.946-2.774-4.442-5.368-4.442-9.374 0-5.5 3.521-9.237 8.888-9.237 4.708 0 9.722 4.398 14.474 8.929-.177-1.408-.351-3.344-.351-4.664v-5.633h5.457v19.673zm-14.083-21.474c-9.5 0-14.385-4.003-14.385-9.987 0-5.983 4.885-9.987 14.385-9.987 9.508 0 14.609 4.004 14.609 9.987.001 5.984-5.101 9.987-14.609 9.987zm-7.3-28.993v5.237h-4.003c-.579-3.038-1.364-4.975-2.555-6.953v-4.753l22.705.001v-5.235h5.235v17.773h-5.235v-6.07h-16.147zm14.256-14.165c-3.392 0-5.456-2.112-6.864-4.752h-.177c-1.629 2.157-3.653 3.738-6.603 3.738-4.748 0-7.697-3.738-7.697-8.933 0-5.102 3.037-8.49 7.657-8.49 2.684 0 4.84 1.716 6.111 3.653h.181c1.453-2.684 3.605-4.84 7.304-4.84 4.397 0 7.741 3.959 7.741 9.898.001 5.588-3.125 9.726-7.653 9.726zm-6.956 29.301c-7.653 0-9.371 1.674-9.371 3.871 0 2.157 1.718 3.875 9.371 3.875 7.612 0 9.596-1.718 9.596-3.875 0-2.198-1.983-3.871-9.596-3.871zm6.651-42.897c-2.466 0-3.392 2.376-4.889 5.895 1.14 1.231 2.732 2.157 4.446 2.157 2.463 0 3.911-1.98 3.911-4.313 0-2.156-1.142-3.739-3.468-3.739zm27.088-15.712h5.198l8.91 16.081 2.935 6.072h.17c-.218-2.927-.656-6.555-.656-9.744V113.74h4.852v28.574h-5.198l-8.918-16.079-2.924-6.074h-.177c.218 3.016.656 6.466.656 9.659v12.494h-4.848V113.74zm28.007 20.582v-13.459h5.024v12.803c0 3.539 1.011 4.848 3.322 4.848 1.88 0 3.145-.874 4.763-2.971v-14.68h5.024v21.452h-4.11l-.391-3.145h-.133c-1.88 2.229-3.971 3.67-6.905 3.67-4.581-.001-6.594-3.103-6.594-8.518zm2.05-19.93c0-1.482 1.139-2.665 2.673-2.665 1.574 0 2.665 1.183 2.665 2.665 0 1.486-1.091 2.667-2.665 2.667-1.534.001-2.673-1.181-2.673-2.667zm9.006 0c0-1.482 1.095-2.665 2.666-2.665 1.529 0 2.665 1.183 2.665 2.665 0 1.486-1.136 2.667-2.665 2.667-1.571.001-2.666-1.181-2.666-2.667zm13.419 6.47h4.147l.354 3.801h.173c1.526-2.798 3.801-4.328 6.072-4.328 1.091 0 1.787.133 2.447.438l-.877 4.369c-.741-.217-1.309-.35-2.224-.35-1.714 0-3.76 1.184-5.068 4.417v13.105h-5.025v-21.452zm16.247 0h4.154l.354 2.883h.169c1.921-1.88 4.107-3.41 7.034-3.41 4.59 0 6.603 3.104 6.603 8.523v13.456h-5.024v-12.801c0-3.537-1.003-4.85-3.37-4.85-1.876 0-3.097.918-4.888 2.665v14.986h-5.032v-21.452zm29.02 19.183h-.133l-.435 2.269h-3.975v-30.849h5.021v7.952l-.126 3.585c1.788-1.572 4.011-2.667 6.201-2.667 5.375 0 8.476 4.284 8.476 10.883 0 7.384-4.413 11.622-9.176 11.622-1.967-.001-4.068-1.005-5.853-2.795zm9.833-8.739c0-4.284-1.394-6.818-4.634-6.818-1.57 0-3.057.787-4.719 2.404v10.005c1.529 1.312 3.063 1.792 4.328 1.792 2.838-.001 5.025-2.535 5.025-7.383zm8.781.304c0-6.992 4.852-11.275 9.876-11.275 5.811 0 8.874 4.195 8.874 10.184 0 .96-.093 1.921-.226 2.446h-13.633c.439 3.801 2.887 5.985 6.342 5.985 1.835 0 3.406-.568 4.977-1.572l1.707 3.146c-2.058 1.353-4.631 2.315-7.344 2.315-5.943 0-10.573-4.151-10.573-11.229zm14.378-2.053c0-3.321-1.445-5.331-4.373-5.331-2.532 0-4.719 1.878-5.153 5.331h9.526zm9.172-8.695h4.154l.351 3.801h.173c1.53-2.798 3.805-4.328 6.079-4.328 1.088 0 1.784.133 2.444.438l-.877 4.369c-.741-.217-1.313-.35-2.23-.35-1.703 0-3.761 1.184-5.069 4.417v13.105h-5.024v-21.452zm14.421 25.344c0-1.794 1.091-3.366 3.06-4.59v-.175c-1.091-.697-1.925-1.832-1.925-3.582 0-1.661 1.132-3.102 2.359-3.976v-.177c-1.444-1.091-2.794-3.145-2.794-5.681 0-4.936 3.971-7.69 8.476-7.69 1.184 0 2.271.221 3.148.527h7.687v3.714h-3.931c.697.828 1.229 2.14 1.229 3.626 0 4.763-3.588 7.299-8.133 7.299a7.966 7.966 0 0 1-2.928-.571c-.656.571-1.047 1.091-1.047 2.053 0 1.226.87 1.967 3.495 1.967h3.805c5.15 0 7.863 1.574 7.863 5.289 0 4.239-4.457 7.557-11.446 7.557-5.11 0-8.918-1.832-8.918-5.59zm-154.334 5.03h8.391c8.652 0 14.599 4.018 14.599 14.071 0 10.046-5.946 14.33-14.167 14.33h-8.822v-28.401zm7.953 22.373c4.106 0 7.336-1.663 7.336-8.302 0-6.643-3.229-8.042-7.336-8.042h-.438v16.344h.438zm19.228-22.373h7.514v28.401h-7.514v-28.401zm12.582 14.418c0-9.526 6.552-14.942 14.157-14.942 4.198 0 7.255 1.748 9.268 3.757l-3.938 4.807c-1.4-1.224-2.794-2.099-5.068-2.099-3.85 0-6.725 3.062-6.725 8.215 0 5.331 2.352 8.302 7.429 8.302.785 0 1.655-.177 2.179-.524v-3.932h-4.192v-6.12h10.835v13.546c-2.009 1.924-5.589 3.499-9.614 3.499-7.953.001-14.331-4.81-14.331-14.509zm29.452-14.418h7.517v28.401h-7.517v-28.401zm19.222 6.293H769.4v-6.293h22.551v6.293h-7.51v22.108h-7.524v-22.108zm30.937 16.08h-7.944l-1.408 6.027h-7.683l8.648-28.401h9.091l8.648 28.401h-7.951l-1.401-6.027zm-1.348-5.812l-.479-1.97c-.7-2.708-1.401-6.16-2.102-8.999h-.173c-.608 2.883-1.313 6.291-2.014 8.999l-.479 1.97h5.247zm13.411-16.561h7.517v22.11h10.754v6.291h-18.271v-28.401zM688.48 188.558h18.525v6.293h-11.012v5.416h9.438v6.293h-9.438v10.399h-7.514v-28.401zm22.547 0h18.352v6.293h-10.835v4.454h9.265v6.292h-9.265v5.069h11.271v6.293h-18.787v-28.401zm21.677 24.862l4.276-5.157c2.013 1.614 4.55 2.754 6.647 2.754 2.267 0 3.229-.743 3.229-2.01 0-1.356-1.441-1.79-3.842-2.754l-3.543-1.481c-3.056-1.229-5.722-3.805-5.722-7.914 0-4.853 4.372-8.826 10.573-8.826 3.233 0 6.813 1.224 9.441 3.803l-3.761 4.719c-1.92-1.356-3.583-2.053-5.681-2.053-1.836 0-2.972.652-2.972 1.921 0 1.356 1.615 1.836 4.192 2.84l3.458 1.355c3.535 1.394 5.548 3.841 5.548 7.779 0 4.807-4.019 9.087-11.104 9.087-3.58 0-7.686-1.309-10.739-4.063zm30.061-18.569h-7.517v-6.293h22.547v6.293h-7.514v22.108h-7.517v-22.108zm18.351-6.293h7.517v28.401h-7.517v-28.401zm10.223 0h7.956l2.967 12.409c.793 3.014 1.316 5.942 2.102 8.999h.174c.789-3.057 1.356-5.985 2.104-8.999l2.876-12.409h7.689l-8.394 28.401h-9.076l-8.398-28.401zm41.216 22.368h-7.959l-1.397 6.033h-7.69l8.652-28.401h9.084l8.656 28.401h-7.96l-1.386-6.033zm-1.361-5.809l-.479-1.967c-.704-2.706-1.4-6.161-2.098-9.003h-.173c-.616 2.887-1.316 6.297-2.013 9.003l-.479 1.967h5.242zM282.265 279.673c.57 2.287-.373 4.584-2.785 5.187-1.686.421-3.466-.1-4.89-1.03.607-3.819.933-6.378 3.349-6.979 2.286-.569 3.799.706 4.326 2.822zm-.352 40.89c-7.509 1.872-8.784 3.93-8.247 6.088.527 2.116 2.631 3.379 10.14 1.506 7.464-1.859 8.992-4.027 8.464-6.144-.538-2.156-2.893-3.31-10.357-1.45zm-19.277-35.953c.42 1.685 1.8 2.807 3.913 2.28 2.246-.561 2.852-2.729 3.233-5.803-1.522-.768-3.01-1.038-4.436-.685-2.116.528-3.226 2.136-2.71 4.208zm24.252 18.937l1.486 5.961 5.136-1.281-4.347-17.44-5.136 1.281 1.281 5.139-22.272 5.552 1.162 4.66c1.646 1.653 2.896 3.358 4.202 6.198l3.925-.979-1.281-5.141 15.844-3.95zm5.345-46.587l25.245 101.27-49.318 12.295-25.245-101.271 49.318-12.294zm7.324 75.523l-5.355 1.335 1.377 5.526c.323 1.295.971 3.151 1.486 4.49-5.77-3.285-11.765-6.376-16.385-5.225-5.266 1.313-7.802 5.844-6.456 11.24.978 3.925 3.078 6.107 6.649 8.107l2.549-4.303c-1.813-1.018-3.528-2.195-4.023-4.179-.591-2.376.5-4.25 3.175-4.918 3.888-.97 9.818 2.778 18.166 8.127l3.627-.903-4.81-19.297zm-2.366-11.697c-1.464-5.869-7.451-8.549-16.774-6.225-9.327 2.324-13.134 7.445-11.671 13.315 1.464 5.875 7.23 8.608 16.557 6.284 9.323-2.324 13.352-7.499 11.888-13.374zM286.7 278.702c-1.452-5.826-5.702-8.894-10.02-7.817-3.621.903-5.213 3.545-5.981 6.534l-.169.043c-1.727-1.585-4.265-2.743-6.895-2.087-4.531 1.13-6.681 5.194-5.432 10.203 1.27 5.095 5.076 8.044 9.734 6.883 2.894-.723 4.492-2.771 5.563-5.285l.171-.042c2.028 2.243 4.572 3.81 7.897 2.98 4.445-1.109 6.498-5.93 5.132-11.412zm-52.542 3.308l3-.748.154.617c.223.895.153 1.694-.191 2.363-.42.76-1.103 1.254-2.037 1.485-.88.22-1.634.113-2.259-.341-.834-.597-1.126-1.205-1.928-4.42-.806-3.231-.771-3.878-.365-4.779.362-.699.974-1.173 1.828-1.385 1.581-.395 2.745.168 3.529 1.659l3.214-.802c-1.15-2.737-3.74-4.625-7.452-3.699-1.75.435-3.068 1.398-3.959 2.89-.536.885-.773 1.798-.723 2.785.046.962.294 2.341.739 4.125.446 1.792.875 3.125 1.286 3.997.414.873 1.055 1.587 1.947 2.123 1.485.896 3.102 1.124 4.851.689 1.828-.455 3.204-1.406 4.148-3.01.826-1.473.914-2.98.319-5.366l-.595-2.387-6.171 1.539.665 2.665zm-.076 57.281l5.802-1.447 3.364-44.301-5.808 1.446-3.358 44.302zm-17.891-55.728l3.004-.751c1.398-.348 2.093-1.471 1.78-2.729-.315-1.263-1.456-1.928-2.854-1.58l-3.004.749 1.074 4.311zm2.288 9.176l-3.19.796-4.072-16.335 6.402-1.597c3.326-.829 5.865.951 6.546 3.684.571 2.293-.473 4.065-1.913 5.031l5.402 6.133-3.697.922-4.808-5.722-2.295.571 1.625 6.517zm33.472 45.84l-8.047 2.006-8.263 17.729-3.677-14.752-6.619 1.649 8.446 33.882 6.618-1.649-2.538-10.183 3.067-6.332 12.552 13.254 7.711-1.923-17.127-17.415 7.877-16.266zm-50.545-41.584l10.762-2.682-.709-2.843-7.57 1.888-.99-3.975 6.443-1.605-.709-2.842-6.443 1.607-.955-3.832 7.57-1.888-.71-2.847-10.761 2.683 4.072 16.336zm-14.331-6.758l3.124-.779c1.349-.336 1.918-1.277 1.638-2.403-.281-1.129-1.227-1.694-2.575-1.357l-3.125.778.938 3.761zm6.075 8.814l-6.841 1.707-4.072-16.335 6.562-1.637c3.191-.795 5.493.531 6.192 3.336.452 1.813-.448 3.275-1.172 3.871 1.096.212 2.613.931 3.156 3.109.762 3.058-.913 5.226-3.825 5.949zm-1.034-2.759c1.449-.361 1.909-1.451 1.635-2.552-.275-1.102-1.187-1.828-2.636-1.467l-3.325.829 1.002 4.017 3.324-.827zm4.269 27.225l6.467-1.612c2.814-.701 3.994-2.664 3.413-4.995-.582-2.332-2.542-3.508-5.357-2.806l-6.467 1.612 1.944 7.801zm20.539 5.948c1.578 6.332-1.898 10.837-7.945 12.345l-14.18 3.535-8.447-33.887 13.613-3.394c6.614-1.647 11.396 1.104 12.843 6.909.936 3.758-.937 6.805-2.452 8.042 2.29.445 5.442 1.933 6.568 6.45zm-6.699 1.319c-.569-2.284-2.46-3.784-5.455-3.038l-6.902 1.72 2.076 8.328 6.902-1.72c2.996-.746 3.948-3.01 3.379-5.29zM205 386.268l22.317-5.563-1.471-5.901-15.702 3.915-2.052-8.232 13.372-3.333-1.472-5.901-13.372 3.332-1.98-7.942 15.702-3.913-1.472-5.902-22.317 5.563L205 386.268zm-27.266-90.096l-8.964-8.393-2.844.71 4.072 16.335 3.189-.796-2.5-10.027 8.97 8.414 2.842-.708-4.072-16.335-3.187.795 2.494 10.005zm3.618 22.807l-1.472-5.905-22.318 5.563 8.447 33.885 22.317-5.563-1.471-5.902-15.7 3.913-2.052-8.233 13.366-3.333-1.471-5.9-13.366 3.333-1.979-7.943 15.699-3.915zm-5.141 74.467l22.318-5.563-1.471-5.901-15.7 3.913-2.051-8.232 13.365-3.331-1.471-5.901-13.367 3.33-1.979-7.942 15.7-3.913-1.472-5.902-22.317 5.563 8.445 33.879zm-20.315-94.854l3-.748c1.405-.351 2.099-1.473 1.785-2.731-.315-1.263-1.455-1.931-2.86-1.58l-3 .748 1.075 4.311zm2.288 9.176l-3.194.797-4.072-16.335 6.401-1.595c3.33-.831 5.869.949 6.55 3.681.571 2.293-.469 4.066-1.918 5.034l5.404 6.133-3.689.92-4.813-5.722-2.294.571 1.625 6.516zm-17.071 4.257l10.754-2.683-.709-2.84-7.568 1.886-.99-3.973 6.45-1.607-.708-2.842-6.451 1.606-.955-3.83 7.568-1.888-.709-2.846-10.754 2.681 4.072 16.336zm5.359 32.072l-11.517-19.826-4.942 1.233-.864 22.912-10.563-20.064-6.899 1.72 17.491 31.631 5.517-1.375 1.108-22.11 11.362 19.003 5.52-1.377.644-36.152-6.899 1.72.042 22.685zm-14.896-29.547c3.35-.835 5.447-3.77 4.583-7.235l-2.676-10.739-3.163.789 2.648 10.625c.469 1.88-.376 3.288-2.099 3.718-1.72.43-3.099-.424-3.568-2.306l-2.649-10.625-3.194.797 2.677 10.738c.864 3.468 4.095 5.073 7.441 4.238zm-21.416-5.462l8.967 8.416 2.85-.709-4.072-16.336-3.194.797 2.494 10.005-8.962-8.394-2.849.711 4.072 16.335 3.193-.796-2.499-10.029zm46.513 75.936l-11.516-19.822-4.942 1.23-.864 22.908-10.564-20.06-6.897 1.72 17.489 31.627 5.521-1.377 1.104-22.108 11.362 19 5.518-1.375.647-36.146-6.899 1.72.041 22.683zM880.085 410.8a1092.891 1092.891 0 0 0-267.396 0v-13.841a948.935 948.935 0 0 1 267.396 0V410.8z"/><path d="M650.393 412.848v22.703a1570.62 1570.62 0 0 1 191.988 0v-22.703a1167.896 1167.896 0 0 0-191.988 0zM844.023 441.68a1728.821 1728.821 0 0 0-195.273 0c0 55.114-6.613 109.774-9.92 163.634 71.403 12.773 143.711 12.773 215.114 0-3.307-53.859-9.921-108.52-9.921-163.634z"/><g fill="none" stroke="#000" stroke-width="2" stroke-miterlimit="10"><path d="M222.179 57.518v174.435M246.453 147.986v71.956M202.518 107.669v137.364M176.092 196.508v23.434"/></g></svg>