<svg xmlns="http://www.w3.org/2000/svg" width="364.044" height="101.122" viewBox="52.509 51.227 364.044 101.122"><path d="M398.6 152.348c-5.205 0-12.961-1.594-13.918-1.811v-7.751c2.552.53 9.136 1.628 13.813 1.628 5.417 0 8.923-4.605 8.923-12.783 0-9.668-1.591-14.768-9.135-14.768h-8.713v-7.755h7.648c8.608 0 9.03-8.82 9.03-13.067 0-8.395-2.656-11.794-7.966-11.794-4.675 0-9.989 1.169-13.069 1.806V78.3c1.171-.214 7.439-1.806 12.855-1.806 10.943 0 17.211 4.674 17.211 20.505 0 7.224-2.551 13.596-8.181 15.617 6.479.424 9.453 7.54 9.453 17.953.001 15.828-6.157 21.779-17.951 21.779m-48.867-68.101c-9.56 0-12.749 6.484-12.749 29.854 0 22.842 3.189 30.49 12.749 30.49 9.561 0 12.748-7.648 12.748-30.49 0-23.37-3.187-29.854-12.748-29.854m0 68.1c-17.529 0-22.205-12.748-22.205-38.776 0-24.967 4.676-37.077 22.205-37.077s22.202 12.11 22.202 37.077c0 26.028-4.673 38.777-22.202 38.777m-52.91-68.204c-5.846 0-9.986.636-9.986.636v31.02h9.986c5.948 0 10.093-3.931 10.093-15.51 0-10.625-2.551-16.146-10.093-16.146m-1.063 39.413h-8.924v28.045h-9.243V77.236s9.137-.742 17.954-.742c16.149 0 20.825 9.985 20.825 23.052.001 16.15-5.526 24.01-20.612 24.01m-48.017-6.48V151.6h-9.562v-34.525l-19.015-39.84h10.196l14.023 30.065 14.023-30.065h9.666l-19.331 39.84zm-49.58-31.764v66.29h-9.241v-66.29H172.56v-8.076h41.962v8.076h-16.359z"/><path fill="#FF8700" d="M128.031 120.915c-1.501.442-2.697.595-4.263.595-12.84 0-31.699-44.87-31.699-59.804 0-5.501 1.306-7.335 3.142-8.906-15.717 1.833-34.579 7.598-40.607 14.933-1.309 1.835-2.095 4.716-2.095 8.382 0 23.317 24.888 76.234 42.441 76.234 8.12 0 21.816-13.36 33.081-31.434M119.836 51.227c16.242 0 32.487 2.62 32.487 11.789 0 18.6-11.789 41.13-17.815 41.13-10.739 0-24.101-29.862-24.101-44.796 0-6.812 2.62-8.123 9.429-8.123"/></svg>