<svg xmlns="http://www.w3.org/2000/svg" width="1000" height="992.596"><path fill="#FFF" d="M295.016 832.447l-6.064-10.506-6.069 10.506h-27.276l-13.648-23.626 6.067-10.506h-12.119l-6.072-10.505-6.068 10.505h-12.122l6.066 10.506-13.648 23.626h-27.275l-6.069-10.506-6.064 10.506h-12.13l6.069 10.507-6.069 10.502h12.13l13.638 23.626-13.638 23.63h-12.13l6.069 10.503-6.069 10.506h12.13l6.064 10.503 6.069-10.503h27.275l13.648 23.626-6.066 10.499h12.122l6.068 10.513 6.072-10.513h12.119l-6.067-10.499 13.648-23.626h27.276l6.069 10.503 6.064-10.503h12.13l-6.067-10.506 6.067-10.503h-12.13l-13.641-23.63 13.641-23.626h12.13l-6.067-10.502 6.067-10.507z"/><path fill="#C23582" d="M302.594 819.327l-13.639-23.63-13.648 23.63h-12.124l-6.07-10.506 13.651-23.626H243.48l-13.645-23.623-13.644 23.623h-27.285l13.65 23.626-6.068 10.506h-12.124l-13.648-23.63-13.639 23.63H129.79l13.647 23.627-13.647 23.626h27.287l6.063 10.502-6.063 10.507H129.79l13.647 23.626-13.647 23.63h27.287l13.639 23.626 13.648-23.626h12.124l6.068 10.502-13.65 23.623h27.285l13.644 23.626 13.645-23.626h27.285l-13.651-23.623 6.07-10.502h12.124l13.648 23.626 13.639-23.626h27.287l-13.648-23.63 13.648-23.626h-27.287l-6.063-10.507 6.063-10.502h27.287l-13.648-23.626 13.648-23.627h-27.288zm4.552 34.129h-12.129l-13.641 23.626 13.641 23.63h12.129l-6.066 10.503 6.066 10.506h-12.129l-6.064 10.503-6.068-10.503h-27.276l-13.648 23.626 6.066 10.499h-12.119l-6.072 10.514-6.068-10.514h-12.122l6.066-10.499-13.648-23.626h-27.276l-6.068 10.503-6.064-10.503h-12.129l6.068-10.506-6.068-10.503h12.129l13.639-23.63-13.639-23.626h-12.129l6.068-10.502-6.068-10.507h12.129l6.064-10.506 6.068 10.506h27.276l13.648-23.626-6.066-10.506h12.122l6.068-10.506 6.072 10.506h12.119l-6.066 10.506 13.648 23.626h27.276l6.068-10.506 6.064 10.506h12.129l-6.066 10.507 6.066 10.502z"/><path d="M403.679 932.827h-18.004v-111.07h62.673v15.348h-44.669v34.721h41.858v15.42h-41.858v45.581zm105.522-85.546c3.597 0 6.555.257 8.89.763l-1.749 16.638c-2.531-.61-5.163-.914-7.903-.914-7.139 0-12.925 2.328-17.357 6.988-4.433 4.66-6.643 10.708-6.643 18.159v43.912h-17.853V848.8h13.973l2.359 14.815h.906c2.793-5.011 6.424-8.991 10.907-11.923 4.477-2.936 9.304-4.411 14.47-4.411zm77.031 85.546l-3.571-11.703h-.604c-4.053 5.119-8.131 8.602-12.23 10.452-4.1 1.848-9.371 2.77-15.799 2.77-8.257 0-14.7-2.228-19.342-6.685-4.631-4.458-6.941-10.767-6.941-18.923 0-8.659 3.21-15.188 9.639-19.592 6.435-4.41 16.24-6.818 29.407-7.22l14.504-.459v-4.479c0-5.372-1.258-9.378-3.752-12.043-2.51-2.657-6.396-3.987-11.671-3.987-4.302 0-8.431.629-12.375 1.895a93.861 93.861 0 0 0-11.399 4.486l-5.777-12.762c4.563-2.383 9.552-4.19 14.968-5.434 5.423-1.237 10.535-1.862 15.344-1.862 10.693 0 18.756 2.332 24.201 6.992 5.437 4.66 8.163 11.974 8.163 21.956v56.594l-12.765.004zm-26.586-12.158c6.479 0 11.685-1.808 15.611-5.434 3.919-3.619 5.886-8.695 5.886-15.231v-7.289l-10.788.452c-8.402.311-14.522 1.714-18.348 4.216-3.821 2.505-5.738 6.349-5.738 11.511 0 3.746 1.121 6.652 3.349 8.702 2.226 2.05 5.567 3.073 10.028 3.073zm98.149 13.677c-12.704 0-22.372-3.713-28.98-11.128-6.609-7.426-9.913-18.069-9.913-31.945 0-14.136 3.46-24.996 10.372-32.592 6.909-7.6 16.901-11.399 29.968-11.399 8.864 0 16.84 1.648 23.933 4.942l-5.394 14.356c-7.549-2.939-13.782-4.407-18.691-4.407-14.541 0-21.801 9.649-21.801 28.94 0 9.422 1.808 16.504 5.427 21.236 3.623 4.732 8.927 7.108 15.915 7.108 7.954 0 15.478-1.978 22.566-5.934V929.1a35.143 35.143 0 0 1-10.22 4.024c-3.616.82-8.016 1.222-13.182 1.222zm74.45-14.437c4.356 0 8.717-.68 13.069-2.05v13.445c-1.974.86-4.522 1.58-7.636 2.166-3.116.586-6.341.875-9.682.875-16.92 0-25.38-8.915-25.38-26.743v-45.278h-11.468v-7.902l12.307-6.529 6.074-17.777h11.012V848.8h23.934v13.524h-23.934V907.3c0 4.306 1.085 7.483 3.239 9.533 2.149 2.054 4.976 3.076 8.465 3.076zm82.433 12.918l-3.571-11.703h-.604c-4.057 5.119-8.131 8.602-12.231 10.452-4.11 1.848-9.37 2.77-15.81 2.77-8.25 0-14.7-2.228-19.331-6.685-4.635-4.458-6.956-10.767-6.956-18.923 0-8.659 3.222-15.188 9.653-19.592 6.432-4.41 16.232-6.818 29.399-7.22l14.512-.459v-4.479c0-5.372-1.258-9.378-3.767-12.043-2.506-2.657-6.392-3.987-11.656-3.987-4.302 0-8.431.629-12.386 1.895a94.637 94.637 0 0 0-11.389 4.486l-5.777-12.762c4.556-2.383 9.545-4.19 14.968-5.434 5.416-1.237 10.528-1.862 15.344-1.862 10.683 0 18.756 2.332 24.193 6.992 5.445 4.66 8.171 11.974 8.171 21.956v56.594l-12.762.004zm-26.59-12.158c6.481 0 11.688-1.808 15.607-5.434 3.926-3.619 5.893-8.695 5.893-15.231v-7.289l-10.788.452c-8.413.311-14.522 1.714-18.348 4.216-3.829 2.505-5.737 6.349-5.737 11.511 0 3.746 1.113 6.652 3.34 8.702 2.234 2.05 5.575 3.073 10.033 3.073zm82.122 12.158h-17.849v-118.21h17.849v118.21zM833.698 205.669c-10.589 0-26.362-3.247-28.304-3.681v-15.77c5.184 1.078 18.579 3.312 28.091 3.312 11.02 0 18.148-9.364 18.148-26.001 0-19.66-3.239-30.036-18.579-30.036h-17.726v-15.77h15.557c17.509 0 18.369-17.939 18.369-26.573 0-17.079-5.401-23.991-16.203-23.991-9.509 0-20.318 2.379-26.58 3.673v-15.77c2.379-.434 15.13-3.673 26.146-3.673 22.256 0 35.004 9.508 35.004 41.707 0 14.693-5.185 27.65-16.638 31.764 13.178.86 19.227 15.336 19.227 36.508 0 32.196-12.523 44.301-36.512 44.301M734.31 67.158c-19.447 0-25.933 13.189-25.933 60.723 0 46.457 6.485 62.01 25.933 62.01 19.443 0 25.929-15.553 25.929-62.01-.004-47.534-6.486-60.723-25.929-60.723m0 138.511c-35.654 0-45.163-25.929-45.163-78.872 0-50.781 9.509-75.409 45.163-75.409 35.647 0 45.155 24.627 45.155 75.409 0 52.943-9.508 78.872-45.155 78.872M626.695 66.949c-11.887 0-20.311 1.294-20.311 1.294v63.088h20.311c12.098 0 20.528-7.99 20.528-31.541.001-21.612-5.184-32.841-20.528-32.841m-2.162 80.166h-18.148v57.036h-18.8V52.899s18.583-1.511 36.515-1.511c32.846 0 42.357 20.311 42.357 46.884 0 32.849-11.24 48.836-41.924 48.836m-97.657-13.174v70.217h-19.45v-70.224L468.753 52.9h20.735l28.523 61.143L546.532 52.9h19.656l-39.313 81.027v.007h.001zM426.032 69.328V204.15H407.24V69.328h-33.281V52.899h85.347v16.428h-33.274v.001z"/><path fill="#FF8700" d="M283.395 141.735c-3.055.896-5.486 1.215-8.671 1.215-26.114 0-64.474-91.258-64.474-121.642 0-11.179 2.657-14.91 6.392-18.113-31.967 3.731-70.329 15.459-82.589 30.376-2.665 3.731-4.262 9.595-4.262 17.05 0 47.419 50.618 155.047 86.319 155.047 16.515.001 44.372-27.172 67.285-63.933M266.725 0C299.761 0 332.8 5.329 332.8 23.977c0 37.831-23.977 83.652-36.235 83.652-21.842 0-49.017-60.738-49.017-91.106C247.549 2.668 252.878 0 266.725 0"/><path d="M1000 496.298c0-110.832-35.542-215.837-102.787-303.664l-5.879 4.501c66.247 86.524 101.262 189.973 101.262 299.163 0 89.849-24.374 177.339-70.466 253.825l-13.761-21.533-14.096 69.122 59.342-38.143-25.452-5.122C975.152 676.688 1000 587.689 1000 496.298zM7.404 496.298c0-87.729 23.293-173.433 67.348-248.639l14.019 21.357 13.253-69.286-58.875 38.86 25.521 4.814C23.754 319.866 0 407.048 0 496.298c0 108.641 34.253 211.956 99.058 298.778l5.933-4.429C41.15 705.115 7.404 603.33 7.404 496.298z"/><g><path d="M611.96 451.242l12.393 20.398c.337.533.601 1.399.601 1.999v2.8c0 .6-.531 1.066-1.132 1.066h-2.133a1.051 1.051 0 0 1-1.066-1.066v-2.667l-11.533-18.865-6.464 8.2v13.332c0 .6-.467 1.066-1.066 1.066h-2.202a1.049 1.049 0 0 1-1.063-1.066v-41.195c0-.6.462-1.067 1.063-1.067h2.202c.6 0 1.066.467 1.066 1.067v20.864l16.598-21.063c.401-.466 1.132-.868 1.731-.868h2.268c.6 0 1.066.334 1.066.734v.333c0 .201-.131.533-.333.801l-11.996 15.197zM652.874 468.641c-1.196 5.732-5.6 9.331-11.464 9.331s-10.268-3.599-11.533-9.331c-1.533-7.267-.064-14.465 0-14.732v-.067c1.266-5.732 5.669-9.264 11.533-9.264 5.799 0 10.198 3.532 11.464 9.264v.067c.069.267 1.533 7.465 0 14.732zm-4.197-13.865c-1.2-5.266-5.467-5.866-7.267-5.866-1.801 0-6.132.6-7.267 5.866-.065.199-1.331 6.665 0 12.997 1.135 5.266 5.466 5.866 7.267 5.866 1.8 0 6.132-.6 7.267-5.866 1.33-6.333 0-12.731 0-12.997zM676.729 477.505c-.601 0-1.132-.466-1.132-1.066v-22.531c0-2.133-.669-3.532-2.202-4.333-1.066-.6-2.267-.665-2.267-.665h-.466c-2.064 0-3.666 1.533-5.199 3.398-.401.467-.669 1.334-.669 1.935v22.196c0 .6-.463 1.066-1.063 1.066h-2.202a1.051 1.051 0 0 1-1.066-1.066V446.11c0-.6.466-1.066 1.066-1.066h2.202c.6 0 1.063.466 1.063 1.066v.732c1.602-1.332 3.471-2.265 5.868-2.265h.466c.202 0 2.267.067 4.331 1.133 1.2.665 2.202 1.533 2.936 2.599 1.801-1.999 4.201-3.732 7.397-3.732h.47c.199 0 2.264.067 4.396 1.133 2.867 1.6 4.469 4.465 4.469 8.198v22.531c0 .6-.471 1.066-1.07 1.066h-2.198a1.051 1.051 0 0 1-1.066-1.066v-22.531c0-2.133-.734-3.532-2.198-4.333a6.316 6.316 0 0 0-2.332-.665h-.47c-2.064 0-3.666 1.533-5.134 3.398-.397.467-.73 1.334-.73 1.935v22.196c0 .6-.467 1.066-1.066 1.066h-2.134zM714.909 477.972c-3.131 0-5.466-1.133-7.396-2.532v11.798c0 .6-.47 1.133-1.07 1.133h-2.198c-.6 0-1.066-.533-1.066-1.133V446.11c0-.6.467-1.066 1.066-1.066h2.198c.601 0 1.07.466 1.07 1v1.066c1.931-1.466 4.266-2.532 7.396-2.532 5.864 0 10.268 3.599 11.468 9.331 1.533 7.267.065 14.398 0 14.732-1.2 5.732-5.604 9.331-11.468 9.331zm7.202-10.199c.065-.067 1.33-6.598 0-12.997-1.07-5.266-5.401-5.866-7.202-5.866-2.798 0-4.732 1.399-6.598 3.199-.466.466-.799 1.266-.799 1.866v14.532c0 .6.333 1.466.799 1.866 1.865 1.867 3.8 3.266 6.598 3.266 1.801 0 6.132-.6 7.202-5.866zM756.294 468.641c-1.196 5.732-5.6 9.331-11.464 9.331s-10.268-3.599-11.533-9.331c-1.532-7.267-.064-14.465 0-14.732v-.067c1.266-5.732 5.669-9.264 11.533-9.264 5.799 0 10.199 3.532 11.464 9.264v.067c.069.267 1.533 7.465 0 14.732zm-4.197-13.865c-1.2-5.266-5.466-5.866-7.267-5.866s-6.132.6-7.267 5.866c-.065.199-1.331 6.665 0 12.997 1.135 5.266 5.466 5.866 7.267 5.866s6.132-.6 7.267-5.866c1.331-6.333 0-12.731 0-12.997zM781.349 445.976c2.396 1.267 5.268 4 5.268 9.666v20.797c0 .6-.47 1.066-1.07 1.066h-2.198c-.6 0-1.066-.466-1.066-1.066v-20.797c0-2.8-.933-4.732-2.867-5.799-1.532-.868-3.199-.933-3.268-.933h-.601c-2.798 0-4.664 1.399-6.529 3.199-.467.399-.803 1.199-.803 1.799v22.531c0 .6-.463 1.066-1.063 1.066h-2.202c-.6 0-1.066-.466-1.066-1.066V446.11c0-.6.467-1.066 1.066-1.066h2.202c.6 0 1.063.399 1.063 1v1c1.935-1.399 4.267-2.465 7.332-2.465h.601c.266-.002 2.731.065 5.201 1.397zM816.533 462.974h-18.93c.064 1.533.264 3.133.6 4.799 1.132 5.266 5.463 5.866 7.264 5.866 1.532 0 4.866-.466 6.536-3.8.264-.533.864-1 1.464-1h2.332c.601 0 1.002.466.803 1.066-1.533 5-5.734 8.066-11.135 8.066-5.864 0-10.265-3.599-11.529-9.331-1.537-7.267-.069-14.465 0-14.732v-.067c1.265-5.732 5.665-9.264 11.529-9.264 5.799 0 10.202 3.532 11.468 9.264v.067c.064.201.729 3.534.729 7.999 0 .6-.531 1.067-1.131 1.067zm-18.797-4.333h15.463c-.134-2.2-.466-3.733-.466-3.865-1.2-5.266-5.467-5.866-7.267-5.866-1.801 0-6.132.6-7.264 5.866.001.132-.335 1.664-.466 3.865zM841.587 445.976c2.4 1.267 5.268 4 5.268 9.666v20.797c0 .6-.466 1.066-1.066 1.066h-2.202a1.05 1.05 0 0 1-1.063-1.066v-20.797c0-2.8-.937-4.732-2.87-5.799-1.533-.868-3.196-.933-3.265-.933h-.601c-2.798 0-4.667 1.399-6.533 3.199-.466.399-.799 1.199-.799 1.799v22.531c0 .6-.466 1.066-1.066 1.066h-2.198c-.6 0-1.07-.466-1.07-1.066V446.11c0-.6.471-1.066 1.07-1.066h2.198c.601 0 1.066.399 1.066 1v1c1.935-1.399 4.267-2.465 7.332-2.465h.601c.267-.002 2.732.065 5.198 1.397zM869.042 449.376h-7.6v17.729c0 1.667.601 3.333 1.667 4.601.6.667 1.865 1.932 3.73 1.932h2.202c.601 0 1.066.466 1.066 1.066v2.133c0 .6-.466 1.133-1.066 1.133h-2.202c-2.664 0-5.198-1.267-7.064-3.532-1.666-2.001-2.668-4.666-2.668-7.333v-17.729h-4.331c-.6 0-1.066-.533-1.066-1.134v-2.133c0-.6.467-1.066 1.066-1.066h4.331v-7.6c0-.6.471-1.066 1.07-1.066h2.198c.601 0 1.066.466 1.066 1.066v7.6h7.6c.601 0 1.066.466 1.066 1.066v2.133c.001.601-.464 1.134-1.065 1.134zM897.697 462.974h-18.93c.064 1.533.264 3.133.6 4.799 1.132 5.266 5.463 5.866 7.264 5.866 1.532 0 4.866-.466 6.536-3.8.264-.533.864-1 1.464-1h2.332c.601 0 1.002.466.803 1.066-1.533 5-5.733 8.066-11.135 8.066-5.864 0-10.265-3.599-11.529-9.331-1.537-7.267-.069-14.465 0-14.732v-.067c1.265-5.732 5.665-9.264 11.529-9.264 5.799 0 10.202 3.532 11.468 9.264v.067c.064.201.729 3.534.729 7.999 0 .6-.531 1.067-1.131 1.067zm-18.796-4.333h15.462c-.134-2.2-.466-3.733-.466-3.865-1.2-5.266-5.467-5.866-7.267-5.866-1.801 0-6.132.6-7.264 5.866.001.132-.335 1.664-.465 3.865zM922.751 445.976c2.401 1.267 5.268 4 5.268 9.666v20.797c0 .6-.466 1.066-1.066 1.066h-2.201a1.049 1.049 0 0 1-1.063-1.066v-20.797c0-2.8-.937-4.732-2.87-5.799-1.533-.868-3.196-.933-3.265-.933h-.601c-2.798 0-4.667 1.399-6.533 3.199-.466.399-.799 1.199-.799 1.799v22.531c0 .6-.466 1.066-1.066 1.066h-2.198c-.6 0-1.07-.466-1.07-1.066V446.11c0-.6.471-1.066 1.07-1.066h2.198c.601 0 1.066.399 1.066 1v1c1.935-1.399 4.267-2.465 7.332-2.465h.601c.266-.002 2.731.065 5.197 1.397zM936.876 461.242c-.6 0-1.069-.468-1.069-1.066v-2.133c0-.601.47-1.134 1.069-1.134h17.195c.6 0 1.066.533 1.066 1.134v2.133c0 .598-.467 1.066-1.066 1.066h-17.195zM625.954 551.605c.265.47.532 1.402.532 2.003v2.798c0 .601-.467 1.063-1.063 1.063h-2.201a1.049 1.049 0 0 1-1.067-1.063v-2.668l-8.597-13.601-5.467 6.269v10c0 .601-.47 1.063-1.069 1.063h-2.198a1.049 1.049 0 0 1-1.067-1.063v-41.193c0-.6.467-1.069 1.067-1.069h2.198c.6 0 1.069.47 1.069 1.069v24.592l12.264-13.998c.332-.463 1.2-.796 1.735-.796h2.263s1.07 0 1.07 1.063v.203c0 .13-.138.463-.336.665l-8.601 9.798 9.468 14.865zM650.741 526.941c1.801 1.67 2.6 3.999 2.6 7.332v22.133a1.05 1.05 0 0 1-1.066 1.063h-2.202c-.6 0-1.063-.462-1.063-1.063v-1.533c-.734.601-1.533 1.063-2.271 1.468-3.131 1.533-6.262 1.599-6.399 1.599h-1.063c-4.802 0-8.666-3.934-8.666-8.67v-.665c0-4.396 2.267-7.267 6.731-8.598l9.866-2.798c.199-.138 1.801-.601 1.801-2.068v-.867c0-3.731-.934-5.401-6.468-5.401-5 0-6.266 1.338-6.468 4.338-.065.601-.532 1.063-1.132 1.063h-2.198c-.601 0-1.066-.463-1.002-1.063.134-2.805 1.002-4.801 2.535-6.269 1.797-1.598 4.399-2.4 8.265-2.4 3.801-.001 6.399.802 8.2 2.399zm-1.731 17.997v-3.796c-.268.064-.535.195-.734.195l-9.732 2.87c-3.001.868-3.601 2.4-3.601 4.396v.665c0 2.336 1.934 4.339 4.335 4.339h1.063s2.336-.072 4.603-1.2c2.732-1.467 4.066-3.868 4.066-7.469zM675.597 529.342h-7.6v17.729c0 1.671.601 3.334 1.667 4.599.6.665 1.865 1.938 3.734 1.938h2.198c.6 0 1.066.463 1.066 1.063v2.133c0 .601-.467 1.136-1.066 1.136h-2.198c-2.668 0-5.202-1.266-7.068-3.536-1.666-1.995-2.664-4.664-2.664-7.332v-17.729h-4.335c-.6 0-1.066-.535-1.066-1.135v-2.134c0-.6.467-1.063 1.066-1.063h4.335v-7.6c0-.6.463-1.07 1.063-1.07h2.202c.601 0 1.066.471 1.066 1.07v7.6h7.6c.6 0 1.066.463 1.066 1.063v2.134c0 .599-.467 1.134-1.066 1.134zM700.65 526.941c1.801 1.67 2.604 3.999 2.604 7.332v22.133c0 .601-.47 1.063-1.07 1.063h-2.198c-.6 0-1.066-.462-1.066-1.063v-1.533c-.733.601-1.533 1.063-2.267 1.468-3.131 1.533-6.266 1.599-6.399 1.599h-1.066c-4.798 0-8.666-3.934-8.666-8.67v-.665c0-4.396 2.267-7.267 6.731-8.598l9.866-2.798c.199-.138 1.801-.601 1.801-2.068v-.867c0-3.731-.933-5.401-6.468-5.401-4.996 0-6.262 1.338-6.464 4.338-.065.601-.535 1.063-1.132 1.063h-2.202c-.6 0-1.063-.463-.997-1.063.13-2.805.997-4.801 2.53-6.269 1.801-1.598 4.399-2.4 8.265-2.4 3.803-.001 6.399.802 8.198 2.399zm-1.731 17.997v-3.796c-.264.064-.531.195-.733.195l-9.732 2.87c-3.001.868-3.598 2.4-3.598 4.396v.665c0 2.336 1.935 4.339 4.331 4.339h1.066s2.336-.072 4.599-1.2c2.733-1.467 4.067-3.868 4.067-7.469zM715.441 549.27c0 1.801 1.334 3.868 3.134 3.868h1.2c.601 0 1.063.471 1.063 1.07v2.198c0 .601-.463 1.063-1.063 1.063h-1.2c-4.468 0-7.465-4.266-7.465-8.199v-34.057c0-.6.466-1.069 1.066-1.069h2.198c.6 0 1.066.47 1.066 1.069v34.057zM748.366 548.604c-1.2 5.733-5.597 9.335-11.465 9.335-5.867 0-10.264-3.602-11.532-9.335-1.533-7.267-.065-14.461 0-14.729v-.065c1.269-5.734 5.665-9.27 11.532-9.27 5.8 0 10.199 3.535 11.465 9.27v.065c.065.269 1.532 7.463 0 14.729zm-4.201-13.861c-1.197-5.271-5.463-5.871-7.264-5.871-1.8 0-6.135.6-7.267 5.871-.065.195-1.334 6.667 0 12.993 1.132 5.271 5.467 5.872 7.267 5.872 1.801 0 6.132-.601 7.264-5.872 1.338-6.326 0-12.725 0-12.993zM778.951 529.342h-1.398l-1.066.268c.933 1.598 1.398 3.528 1.398 5.799 0 6.667-4.399 10.796-11.464 10.796-1.598 0-3.065-.195-4.399-.601-1.132.268-1.533.868-1.732 1.338-.332.601-.401 1.2-.401 1.2 0 .933.333 1.598.933 2.133.532.333 1.132.463 1.201.528h.068l11.128 2.205c1.269.261 3.203.933 4.533 2.596 1.136 1.403 1.667 3.269 1.667 5.799 0 2.669-1.132 4.866-3.333 6.399-2.268 1.533-5.398 2.271-9.664 2.271-4.267 0-7.466-.737-9.667-2.271-2.198-1.533-3.334-3.73-3.334-6.399 0-2.928 1.07-5.134 3.203-6.731a7.797 7.797 0 0 1 1.663-.933c-1.464-1.07-2.733-2.863-2.733-5.597 0-.268.069-1.67.803-3.203.398-.665.868-1.33 1.399-1.865-1.801-1.866-2.802-4.469-2.802-7.665 0-3.471 1.135-6.334 3.333-8.265 2.003-1.67 4.802-2.603 8.135-2.603 2.53 0 4.732.535 6.529 1.532l2.936-.795c.601-.138 1.533-.268 2.133-.268h.933c.601 0 1.136.463 1.136 1.063v2.134c-.002.6-.537 1.135-1.138 1.135zm-6.731 27.86l-6.334-1.266c-7.53 1.402-8.131 3.203-8.131 5.466 0 1.2.467 2.134 1.464 2.799 1.002.672 3.066 1.532 7.202 1.532 4.132 0 6.196-.86 7.198-1.532 1.001-.665 1.464-1.599 1.464-2.799 0-3.131-.933-3.73-2.863-4.2zm1.33-21.794c0-4.331-2.396-6.536-7.129-6.536s-7.133 2.205-7.133 6.536c0 2.198.6 3.796 1.865 4.932 1.2.998 3.001 1.533 5.268 1.533 2.263 0 4.063-.535 5.264-1.533 1.265-1.136 1.865-2.734 1.865-4.932zM803.536 550.405c.064.064 1.066 7.331 6.999 14.063.397.47.332 1.135-.065 1.532l-1.602 1.468c-.401.398-1.132.398-1.532-.064-6.667-7.534-7.937-15.531-8.066-16.399-.064-.6-.867-5.264-.867-13.463 0-8.2.803-12.864.867-13.464.13-.868 1.399-8.865 8.066-16.399a1.06 1.06 0 0 1 1.532-.064l1.602 1.46c.397.405.463 1.136.065 1.533-6.002 6.804-6.935 13.998-6.999 14.201 0 .064-.803 4.599-.803 12.733 0 8.199.803 12.66.803 12.863zM813.658 547.071h2.202c.601 0 1.066.471 1.2 1.07.065.665.333 1.533.799 2.394 1.066 2.067 2.867 3.073 5.532 3.073 2.802 0 4.599-1.07 5.668-3.139.8-1.663.864-3.398.864-3.398v-28.597h-7.596c-.6 0-1.07-.463-1.07-1.063v-2.198c0-.6.471-1.069 1.07-1.069h10.86c.601 0 1.07.47 1.07 1.069v31.858c0 .268-.068 2.733-1.334 5.337-.799 1.598-1.869 2.863-3.265 3.796-1.735 1.135-3.804 1.735-6.269 1.735-2.401 0-4.466-.601-6.197-1.735-1.402-.933-2.466-2.198-3.269-3.796-.867-1.671-1.131-3.269-1.265-4.267-.062-.599.401-1.07 1-1.07zM865.444 540.542c1.2 1.599 1.735 3.464 1.735 5.662 0 3.998-1.2 6.999-3.666 9.002-2.197 1.801-5.268 2.733-9.334 2.733-3.999 0-7.064-.933-9.263-2.733-2.202-1.801-3.467-4.469-3.666-7.932-.068-.601.463-1.07 1.063-1.07h2.134c.6 0 1.069.47 1.135 1.07.268 3.261 1.735 6.334 8.598 6.334 7.668 0 8.669-3.738 8.669-7.404 0-2.198-.669-3.796-4.266-5.93l-11.468-6.464c-.998-.47-5.264-3.001-5.264-8.402 0-3.868.997-6.666 2.996-8.662 2.068-2.068 5.135-3.001 9.332-3.001 4.266 0 7.332.933 9.399 3.001 1.801 1.793 2.798 4.267 2.936 7.6.065.593-.47 1.063-1.07 1.063h-2.133c-.6 0-1.063-.47-1.132-1.063-.198-3.934-1.865-6.27-8-6.27-6.663 0-7.997 2.799-7.997 7.332 0 2.936 2.465 4.331 2.932 4.534l11.667 6.602c2.198 1.33 3.666 2.596 4.663 3.998zM900.832 545.271c-.601 3.803-2.198 6.999-4.6 9.27-2.4 2.198-5.531 3.398-9.066 3.398-3.532 0-6.667-1.2-9.067-3.398-2.328-2.271-3.931-5.467-4.53-9.27-1.464-9.4-.068-18.532 0-18.865.6-3.861 2.202-7.064 4.53-9.327 2.4-2.206 5.535-3.334 9.067-3.334 3.535 0 6.666 1.128 9.066 3.334 2.401 2.263 3.999 5.466 4.6 9.327.064.333 1.468 9.465 0 18.865zm-4.332-18.2c-.867-5.727-4.266-8.995-9.334-8.995-4.997 0-8.398 3.269-9.332 8.995 0 .072-1.334 8.872 0 17.534.934 5.669 4.335 9.003 9.332 9.003 5.068 0 8.467-3.334 9.334-9.003 1.396-8.734.065-17.461 0-17.534zM930.55 557.469c-.601 0-1.266-.462-1.468-.997l-14.794-37.997h-.669v37.932a1.05 1.05 0 0 1-1.066 1.063h-2.198c-.601 0-1.07-.462-1.07-1.063v-41.193c0-.6.47-1.069 1.07-1.069h5.799c.601 0 1.266.47 1.533.997l14.729 37.997h.669v-37.925c0-.6.531-1.069 1.132-1.069h2.133c.6 0 1.066.47 1.066 1.069v41.193a1.05 1.05 0 0 1-1.066 1.063h-5.8zM950.867 524.809c-.064-.203-.997-7.397-6.999-14.201-.397-.397-.332-1.128.069-1.533l1.598-1.46c.401-.405 1.132-.405 1.468.064 6.731 7.534 8.001 15.531 8.131 16.399.065.6.868 5.264.868 13.464 0 8.199-.803 12.863-.868 13.463-.13.868-1.399 8.865-8.131 16.399-.336.463-1.066.463-1.468.064L943.937 566a1.128 1.128 0 0 1-.069-1.532c5.933-6.732 6.935-13.999 6.935-14.063.064-.203.867-4.664.867-12.863 0-8.135-.803-12.669-.803-12.733z"/></g><g><path d="M42.97 477.505a1.052 1.052 0 0 1-1.067-1.066v-41.195c0-.6.466-1.067 1.067-1.067h2.2c.6 0 1.066.467 1.066 1.067v37.928h18.398c.599 0 1.066.466 1.066 1.066v2.2c0 .6-.468 1.066-1.066 1.066H42.97zM76.491 446.11v30.329c0 .6-.466 1.066-1.066 1.066h-2.2a1.052 1.052 0 0 1-1.067-1.066v-27.063h-4.333c-.6 0-1.066-.533-1.066-1.134v-2.133c0-.6.466-1.066 1.066-1.066h7.6c.6 0 1.066.467 1.066 1.067zm0-8.666v2.133c0 .6-.466 1.133-1.066 1.133h-2.2c-.601 0-1.067-.533-1.067-1.133v-2.133c0-.6.466-1.066 1.067-1.066h2.2c.6-.001 1.066.466 1.066 1.066zM92.883 477.505c-.6 0-1.267-.466-1.399-1l-9.065-25.797c-.201-.533-.334-1.466-.334-2.066v-2.533c0-.6.467-1.066 1.067-1.066h2.2c.6 0 1.066.466 1.066 1.066v2.865l8.465 24.197h1.268l8.465-24.197v-2.865c0-.6.467-1.066 1.067-1.066h2.2c.6 0 1.066.466 1.066 1.066v2.533c0 .6-.134 1.533-.334 2.066l-9.063 25.797c-.201.533-.801 1-1.401 1h-5.268zM136.468 462.974h-18.93a31.65 31.65 0 0 0 .598 4.799c1.133 5.266 5.466 5.866 7.267 5.866 1.533 0 4.866-.466 6.533-3.8.266-.533.866-1 1.466-1h2.334c.598 0 1 .466.799 1.066-1.533 5-5.732 8.066-11.131 8.066-5.866 0-10.266-3.599-11.533-9.331-1.533-7.267-.065-14.465 0-14.732v-.067c1.267-5.732 5.667-9.264 11.533-9.264 5.799 0 10.199 3.532 11.464 9.264v.067c.067.201.734 3.534.734 7.999-.001.6-.534 1.067-1.134 1.067zm-18.798-4.333h15.464c-.132-2.2-.466-3.733-.466-3.865-1.198-5.266-5.464-5.866-7.265-5.866-1.801 0-6.134.6-7.267 5.866 0 .132-.332 1.664-.466 3.865zM144.924 461.242c-.6 0-1.066-.468-1.066-1.066v-2.133c0-.601.466-1.134 1.066-1.134h17.197c.6 0 1.066.533 1.066 1.134v2.133c0 .598-.466 1.066-1.066 1.066h-17.197zM191.643 457.375a13.224 13.224 0 0 1-2.934 1.067l8.333 13.198c.333.466.6 1.399.6 1.999v2.8c0 .6-.533 1.066-1.133 1.066h-2.133c-.6 0-1.066-.466-1.066-1.066v-2.667l-9.465-14.864h-8.333v17.531c0 .6-.466 1.066-1.067 1.066h-2.2c-.6 0-1.066-.466-1.066-1.066v-41.128c0-.6.466-1.134 1.066-1.134h13.332c.334 0 3.133.067 6.066 1.533 2.867 1.401 6.266 4.467 6.266 10.799 0 6.4-3.399 9.465-6.266 10.866zm-16.131-2.8h10.065s2.133-.067 4.199-1.133c2.534-1.333 3.8-3.599 3.8-6.933s-1.266-5.598-3.867-6.932c-2.066-1-4.132-1.067-4.132-1.067h-10.065v16.065zM108.165 537.347a13.066 13.066 0 0 1-2.934 1.066l8.333 13.199c.333.463.6 1.396.6 1.996v2.802c0 .6-.533 1.066-1.134 1.066h-2.133c-.6 0-1.066-.467-1.066-1.066v-2.665l-9.465-14.866h-8.333v17.531c0 .6-.466 1.066-1.066 1.066h-2.2c-.6 0-1.066-.467-1.066-1.066v-41.128c0-.601.466-1.132 1.066-1.132h13.332c.334 0 3.133.065 6.066 1.533 2.867 1.398 6.266 4.465 6.266 10.795 0 6.4-3.399 9.465-6.266 10.869zm-16.131-2.799h10.065s2.133-.068 4.199-1.135c2.534-1.331 3.8-3.602 3.8-6.935s-1.266-5.597-3.867-6.931c-2.066-1.001-4.132-1.066-4.132-1.066H92.034v16.067zM226.761 462.974h-18.93a31.53 31.53 0 0 0 .599 4.799c1.133 5.266 5.466 5.866 7.267 5.866 1.533 0 4.866-.466 6.533-3.8.266-.533.866-1 1.466-1h2.333c.599 0 1 .466.799 1.066-1.533 5-5.732 8.066-11.132 8.066-5.866 0-10.266-3.599-11.533-9.331-1.533-7.267-.065-14.465 0-14.732v-.067c1.267-5.732 5.667-9.264 11.533-9.264 5.799 0 10.199 3.532 11.464 9.264v.067c.067.201.734 3.534.734 7.999 0 .6-.533 1.067-1.133 1.067zm-18.798-4.333h15.464c-.132-2.2-.466-3.733-.466-3.865-1.198-5.266-5.464-5.866-7.265-5.866-1.8 0-6.133.6-7.267 5.866 0 .132-.332 1.664-.466 3.865zM251.813 445.976c2.401 1.267 5.268 4 5.268 9.666v20.797c0 .6-.466 1.066-1.066 1.066h-2.2c-.6 0-1.066-.466-1.066-1.066v-20.797c0-2.8-.935-4.732-2.867-5.799-1.533-.868-3.2-.933-3.267-.933h-.6c-2.798 0-4.666 1.399-6.531 3.199-.468.399-.801 1.199-.801 1.799v22.531c0 .6-.466 1.066-1.066 1.066h-2.2c-.6 0-1.066-.466-1.066-1.066V446.11c0-.6.466-1.066 1.066-1.066h2.2c.6 0 1.066.399 1.066 1v1c1.934-1.399 4.266-2.465 7.332-2.465h.6c.267-.002 2.733.065 5.198 1.397zM275.87 444.577c3.132 0 5.466 1.066 7.398 2.532v-11.865c0-.6.534-1.067 1.134-1.067h2.133c.6 0 1.066.467 1.066 1.067v41.195c0 .6-.466 1.066-1.066 1.066h-2.133c-.6 0-1.134-.466-1.134-1.066v-1c-1.932 1.399-4.266 2.532-7.398 2.532-5.866 0-10.266-3.599-11.464-9.331-1.535-7.333-.067-14.465 0-14.732 1.198-5.732 5.597-9.331 11.464-9.331zm-7.199 10.199c0 .067-1.334 6.531 0 12.997 1.066 5.266 5.397 5.866 7.198 5.866 2.8 0 4.732-1.399 6.667-3.266.399-.4.732-1.266.732-1.866v-14.532c0-.6-.333-1.399-.732-1.866-1.934-1.8-3.867-3.199-6.667-3.199-1.8 0-6.131.6-7.198 5.866zM317.786 462.974h-18.93c.065 1.533.266 3.133.6 4.799 1.131 5.266 5.464 5.866 7.265 5.866 1.533 0 4.866-.466 6.533-3.8.266-.533.866-1 1.466-1h2.332c.6 0 1.001.466.801 1.066-1.533 5-5.732 8.066-11.132 8.066-5.866 0-10.266-3.599-11.531-9.331-1.535-7.267-.067-14.465 0-14.732v-.067c1.265-5.732 5.665-9.264 11.531-9.264 5.799 0 10.199 3.532 11.464 9.264v.067c.067.201.734 3.534.734 7.999 0 .6-.533 1.067-1.133 1.067zm-18.798-4.333h15.464c-.132-2.2-.466-3.733-.466-3.865-1.2-5.266-5.466-5.866-7.265-5.866-1.8 0-6.133.6-7.265 5.866 0 .132-.334 1.664-.468 3.865zM337.309 444.577c.6 0 1.066.466 1.066 1.066v2.133c0 .6-.466 1.067-1.066 1.134-3.001.266-5 1.533-6.799 3.199-.468.399-.801 1.199-.801 1.799v22.531c0 .6-.466 1.066-1.066 1.066h-2.2c-.6 0-1.066-.466-1.066-1.066v-30.396c0-.6.466-1.066 1.066-1.066h2.2c.6 0 1.066.466 1.066 1.066v1.133a15.08 15.08 0 0 1 7.6-2.599zM349.833 446.11v30.329c0 .6-.466 1.066-1.066 1.066h-2.2c-.6 0-1.066-.466-1.066-1.066v-27.063h-4.333c-.601 0-1.067-.533-1.067-1.134v-2.133c0-.6.466-1.066 1.067-1.066h7.599c.6 0 1.066.467 1.066 1.067zm0-8.666v2.133c0 .6-.466 1.133-1.066 1.133h-2.2c-.6 0-1.066-.533-1.066-1.133v-2.133c0-.6.466-1.066 1.066-1.066h2.2c.6-.001 1.066.466 1.066 1.066zM375.559 445.976c2.399 1.267 5.266 4 5.266 9.666v20.797c0 .6-.468 1.066-1.066 1.066h-2.2c-.6 0-1.066-.466-1.066-1.066v-20.797c0-2.8-.933-4.732-2.867-5.799-1.533-.868-3.2-.933-3.267-.933h-.6c-2.798 0-4.666 1.399-6.531 3.199-.466.399-.801 1.199-.801 1.799v22.531c0 .6-.466 1.066-1.066 1.066h-2.2c-.6 0-1.066-.466-1.066-1.066V446.11c0-.6.466-1.066 1.066-1.066h2.2c.6 0 1.066.399 1.066 1v1c1.933-1.399 4.266-2.465 7.332-2.465h.6c.266-.002 2.732.065 5.2 1.397zM411.812 449.376h-1.399l-1.066.266c.933 1.6 1.399 3.534 1.399 5.799 0 6.667-4.4 10.799-11.464 10.799-1.6 0-3.068-.201-4.4-.601-1.134.268-1.533.868-1.734 1.334-.333.6-.399 1.198-.399 1.198 0 .935.333 1.602.933 2.133.534.334 1.134.468 1.201.535h.067l11.131 2.198c1.266.268 3.2.935 4.532 2.6 1.133 1.401 1.667 3.266 1.667 5.801 0 2.666-1.134 4.864-3.332 6.399-2.267 1.533-5.399 2.265-9.666 2.265s-7.466-.732-9.666-2.265c-2.2-1.535-3.333-3.733-3.333-6.399 0-2.934 1.066-5.134 3.2-6.734.466-.333 1-.665 1.667-.933-1.466-1.066-2.733-2.867-2.733-5.6 0-.266.067-1.665.799-3.2.401-.665.868-1.332 1.401-1.865-1.801-1.866-2.8-4.467-2.8-7.667 0-3.465 1.133-6.332 3.333-8.265 1.999-1.667 4.799-2.599 8.133-2.599 2.532 0 4.732.533 6.531 1.533l2.934-.801c.6-.132 1.533-.266 2.133-.266h.933c.6 0 1.133.466 1.133 1.066v2.133c-.002.603-.535 1.136-1.135 1.136zm-6.732 27.864l-6.333-1.267c-7.532 1.399-8.132 3.199-8.132 5.466 0 1.198.466 2.133 1.466 2.798 1 .667 3.066 1.535 7.2 1.535 4.132 0 6.198-.868 7.198-1.535 1-.666 1.466-1.6 1.466-2.798 0-3.133-.933-3.733-2.865-4.199zm1.332-21.799c0-4.333-2.398-6.531-7.131-6.531-4.734 0-7.133 2.198-7.133 6.531 0 2.2.6 3.8 1.867 4.933 1.199 1 2.999 1.533 5.266 1.533 2.265 0 4.065-.533 5.266-1.533 1.265-1.133 1.865-2.733 1.865-4.933zM69.566 538.004v2.134c0 .6-.466 1.069-1.066 1.069H56.569v13.001c0 .593-.466 1.128-1.066 1.128h-2.2c-.6 0-1.067-.535-1.067-1.128v-13.001H40.304c-.6 0-1.066-.47-1.066-1.069v-2.134c0-.6.466-1.128 1.066-1.128h11.932v-13c0-.601.467-1.07 1.067-1.07h2.2c.6 0 1.066.47 1.066 1.07v13H68.5c.6 0 1.066.528 1.066 1.128zM143.198 542.942h-18.93c.065 1.533.266 3.131.6 4.794 1.131 5.271 5.464 5.872 7.265 5.872 1.533 0 4.866-.471 6.533-3.804.266-.535.866-.998 1.466-.998h2.332c.6 0 1.001.463.801 1.063-1.533 5.003-5.732 8.069-11.132 8.069-5.866 0-10.266-3.602-11.531-9.335-1.535-7.267-.067-14.461 0-14.729v-.065c1.265-5.734 5.665-9.27 11.531-9.27 5.799 0 10.199 3.535 11.464 9.27v.065c.067.195.734 3.528.734 7.997 0 .602-.533 1.071-1.133 1.071zm-18.798-4.338h15.464c-.132-2.198-.466-3.731-.466-3.861-1.2-5.271-5.466-5.871-7.265-5.871-1.8 0-6.133.6-7.265 5.871 0 .13-.334 1.663-.468 3.861zM165.452 540.542c3.398 1.331 5.266 4.063 5.266 7.6 0 4.129-1.801 6.399-3.267 7.6-1.867 1.396-4.4 2.198-7.533 2.198-3.132 0-5.665-.803-7.532-2.198-1.399-1.07-2.999-3.073-3.267-6.472-.065-.6.466-1.128 1.066-1.128h2.133c.6 0 1.066.528 1.133 1.128.201 1.338.734 2.336 1.6 3.065 1.067.803 2.733 1.273 4.866 1.273 2.133 0 3.8-.471 4.866-1.273 1.067-.86 1.6-2.263 1.6-4.193 0-1.07-.266-2.668-2.533-3.601-.268-.138-2.733-.998-4.667-1.735-2.798-.998-4.532-1.599-4.864-1.735-3-1.2-4.799-3.731-4.799-6.797 0-4.396 1.732-9.732 10.199-9.732h.199c7.733 0 9.866 4.469 10.132 8.669.067.601-.467 1.063-1.067 1.063h-2.133c-.6 0-1.066-.463-1.133-1.063-.266-3.138-1.933-4.338-5.799-4.338h-.199c-4.266 0-5.868 1.468-5.868 5.401 0 1.598 1.133 2.4 2.068 2.798.333.072 2.733 1.005 4.732 1.671 2.8.996 4.467 1.662 4.801 1.799zM199.639 548.604c-1.199 5.733-5.599 9.335-11.464 9.335s-10.266-3.602-11.531-9.335c-1.535-7.267-.067-14.461 0-14.729v-.065c1.266-5.734 5.666-9.27 11.531-9.27 5.799 0 10.199 3.535 11.464 9.27v.065c.067.269 1.534 7.463 0 14.729zm-4.2-13.861c-1.201-5.271-5.467-5.871-7.265-5.871-1.8 0-6.133.6-7.265 5.871-.067.195-1.334 6.667 0 12.993 1.132 5.271 5.465 5.872 7.265 5.872 1.798 0 6.131-.601 7.265-5.872 1.334-6.326 0-12.725 0-12.993zM212.162 556.536c-2.399-1.265-5.266-3.998-5.266-9.667v-20.796c0-.6.466-1.063 1.066-1.063h2.2c.6 0 1.066.463 1.066 1.063v20.796c0 2.806.933 4.671 2.865 5.799 1.533.868 3.2.94 3.267.94h.6c2.8 0 4.666-1.403 6.6-3.203.4-.398.732-1.266.732-1.866v-22.466c0-.6.468-1.063 1.066-1.063h2.2a1.05 1.05 0 0 1 1.067 1.063v30.333c0 .601-.466 1.063-1.067 1.063h-2.2c-.598 0-1.066-.462-1.066-.997v-1.07c-1.933 1.468-4.266 2.538-7.332 2.538h-.6c-.265-.001-2.666-.066-5.198-1.404zM249.814 524.541c.6 0 1.066.47 1.066 1.07v2.133c0 .6-.466 1.063-1.066 1.128-3.001.268-5 1.533-6.799 3.203-.468.397-.801 1.2-.801 1.801v22.53c0 .601-.466 1.063-1.066 1.063h-2.2c-.6 0-1.066-.462-1.066-1.063v-30.397c0-.601.466-1.07 1.066-1.07h2.2c.6 0 1.066.47 1.066 1.07v1.135a15.131 15.131 0 0 1 7.6-2.603zM270.938 551.938c.534-.535 1.401-1.402 1.734-2.733.201-.534.667-1.063 1.267-1.063h2.133c.6 0 1.134.528 1 1.128-.268 2.271-1.466 4.339-3.4 6.002-2 1.663-4.732 2.668-7.332 2.668-5.866 0-10.266-3.602-11.464-9.335-1.602-7.267-.067-14.461 0-14.794 1.198-5.734 5.598-9.27 11.464-9.27 2.6 0 5.333.998 7.332 2.668 1.934 1.598 3.133 3.731 3.4 6.001.134.601-.4 1.063-1 1.063h-2.133c-.6 0-1.066-.463-1.267-1.063-.333-1.272-1.2-2.205-1.734-2.668a7.196 7.196 0 0 0-4.599-1.67c-1.8 0-6.131.6-7.265 5.871 0 .065-1.334 6.595 0 12.929 1.134 5.336 5.465 5.937 7.265 5.937 1.667-.001 3.334-.673 4.599-1.671zM305.591 542.942h-18.93c.065 1.533.266 3.131.6 4.794 1.132 5.271 5.465 5.872 7.265 5.872 1.533 0 4.866-.471 6.533-3.804.266-.535.866-.998 1.466-.998h2.332c.6 0 1.001.463.801 1.063-1.533 5.003-5.732 8.069-11.132 8.069-5.866 0-10.266-3.602-11.531-9.335-1.535-7.267-.067-14.461 0-14.729v-.065c1.266-5.734 5.666-9.27 11.531-9.27 5.799 0 10.199 3.535 11.464 9.27v.065c.067.195.734 3.528.734 7.997.001.602-.533 1.071-1.133 1.071zm-18.798-4.338h15.465c-.132-2.198-.466-3.731-.466-3.861-1.2-5.271-5.466-5.871-7.265-5.871-1.8 0-6.133.6-7.265 5.871-.001.13-.335 1.663-.469 3.861zM330.646 525.943c2.4 1.266 5.268 3.999 5.268 9.66v20.803a1.05 1.05 0 0 1-1.067 1.063h-2.2c-.6 0-1.066-.462-1.066-1.063v-20.803c0-2.798-.935-4.729-2.867-5.799-1.533-.86-3.2-.933-3.267-.933h-.6c-2.798 0-4.666 1.402-6.531 3.203-.468.397-.801 1.2-.801 1.801v22.53a1.05 1.05 0 0 1-1.067 1.063h-2.2c-.6 0-1.066-.462-1.066-1.063v-30.333c0-.6.466-1.063 1.066-1.063h2.2c.6 0 1.067.397 1.067.998v.998c1.934-1.396 4.266-2.466 7.332-2.466h.6c.267.002 2.733.066 5.199 1.404z"/></g></svg>