<svg xmlns="http://www.w3.org/2000/svg" width="1000" height="277.776" viewBox="-265.47 -37.1 1000 277.776"><path d="M685.219 240.673c-14.298 0-35.603-4.378-38.23-4.974v-21.295c7.01 1.456 25.095 4.476 37.941 4.476 14.883 0 24.514-12.651 24.514-35.115 0-26.557-4.373-40.567-25.094-40.567h-23.937v-21.303h21.007c23.649 0 24.809-24.229 24.809-35.893 0-23.063-7.297-32.399-21.884-32.399-12.842 0-27.438 3.214-35.897 4.963v-21.3c3.214-.585 20.434-4.958 35.311-4.958 30.059 0 47.277 12.839 47.277 56.323 0 19.846-7.007 37.35-22.473 42.898 17.797 1.164 25.968 20.713 25.968 49.316-.001 43.481-16.914 59.828-49.312 59.828M550.985 53.603c-26.264 0-35.021 17.813-35.021 82.008 0 62.745 8.759 83.752 35.021 83.752s35.018-21.007 35.018-83.752c-.001-64.196-8.756-82.008-35.018-82.008m0 187.067c-48.152 0-60.996-35.019-60.996-106.517 0-68.582 12.844-101.846 60.996-101.846 48.15 0 60.986 33.264 60.986 101.846 0 71.498-12.836 106.52-60.986 106.52M405.644 53.321c-16.058 0-27.432 1.747-27.432 1.747v85.208h27.432c16.339 0 27.727-10.795 27.727-42.604 0-29.186-7.007-44.351-27.727-44.351m-2.919 108.265h-24.513v77.037h-25.394V34.345s25.101-2.036 49.321-2.036c44.359 0 57.203 27.426 57.203 63.319.005 44.364-15.178 65.956-56.618 65.956m-131.899-17.799v94.834h-26.266v-94.84L192.328 34.342h28.006l38.521 82.585 38.521-82.585h26.552L270.825 143.78v.005zM134.631 56.53v182.095h-25.382V56.53H64.303V34.345H179.57V56.53h-44.939z"/><path fill="#FF8700" d="M-58.015 154.328c-4.124 1.215-7.409 1.636-11.71 1.636-35.27 0-87.076-123.255-87.076-164.279 0-15.107 3.588-20.146 8.631-24.465-43.173 5.038-94.987 20.873-111.544 41.021-3.596 5.041-5.756 12.957-5.756 23.024 0 64.052 68.366 209.411 116.584 209.411 22.304 0 59.927-36.7 90.871-86.348M-80.527-37.1c44.616 0 89.24 7.197 89.24 32.385 0 51.092-32.384 112.98-48.938 112.98-29.499 0-66.203-82.03-66.203-123.051.001-18.714 7.197-22.314 25.901-22.314"/></svg>